<mxfile host="app.diagrams.net" modified="2021-01-10T17:04:51.730Z" agent="5.0 (Windows NT 10.0; Win64; x64) AppleWebKit/537.36 (KHTML, like Gecko) Chrome/87.0.4280.141 Safari/537.36" etag="nI8JYLhalwDW6o2Ka5Zf" version="14.1.9" type="github">
  <diagram name="Page-1" id="c7558073-3199-34d8-9f00-42111426c3f3">
    <mxGraphModel dx="325" dy="177" grid="1" gridSize="10" guides="1" tooltips="1" connect="1" arrows="1" fold="1" page="1" pageScale="1" pageWidth="1169" pageHeight="827" background="#ffffff" math="0" shadow="0">
      <root>
        <mxCell id="0" />
        <mxCell id="1" parent="0" />
        <mxCell id="eYxJqQjuEskyyYBBLdMw-1" value="" style="endArrow=classic;html=1;exitX=-0.015;exitY=0.994;exitDx=0;exitDy=0;exitPerimeter=0;" edge="1" parent="1" source="eYxJqQjuEskyyYBBLdMw-2">
          <mxGeometry width="50" height="50" relative="1" as="geometry">
            <mxPoint x="-9.099999999999994" y="100" as="sourcePoint" />
            <mxPoint x="100.9" y="100" as="targetPoint" />
          </mxGeometry>
        </mxCell>
        <mxCell id="eYxJqQjuEskyyYBBLdMw-2" value="DCJ_IN" style="text;html=1;align=center;verticalAlign=middle;resizable=0;points=[];autosize=1;" vertex="1" parent="1">
          <mxGeometry x="20.900000000000006" y="80" width="60" height="20" as="geometry" />
        </mxCell>
        <mxCell id="eYxJqQjuEskyyYBBLdMw-5" value="" style="edgeStyle=orthogonalEdgeStyle;rounded=0;orthogonalLoop=1;jettySize=auto;html=1;" edge="1" parent="1" source="eYxJqQjuEskyyYBBLdMw-3" target="eYxJqQjuEskyyYBBLdMw-4">
          <mxGeometry relative="1" as="geometry" />
        </mxCell>
        <mxCell id="eYxJqQjuEskyyYBBLdMw-3" value="VDD_DCIN" style="text;html=1;align=center;verticalAlign=middle;resizable=0;points=[];autosize=1;" vertex="1" parent="1">
          <mxGeometry x="100.9" y="90" width="80" height="20" as="geometry" />
        </mxCell>
        <mxCell id="eYxJqQjuEskyyYBBLdMw-4" value="TPS53015" style="whiteSpace=wrap;html=1;" vertex="1" parent="1">
          <mxGeometry x="240.9" y="70" width="80" height="60" as="geometry" />
        </mxCell>
        <mxCell id="eYxJqQjuEskyyYBBLdMw-6" value="" style="edgeStyle=orthogonalEdgeStyle;rounded=0;orthogonalLoop=1;jettySize=auto;html=1;" edge="1" parent="1">
          <mxGeometry relative="1" as="geometry">
            <mxPoint x="320.9" y="89.70999999999998" as="sourcePoint" />
            <mxPoint x="440.9" y="90" as="targetPoint" />
            <Array as="points">
              <mxPoint x="380.9" y="90" />
              <mxPoint x="440.9" y="90" />
            </Array>
          </mxGeometry>
        </mxCell>
        <mxCell id="eYxJqQjuEskyyYBBLdMw-7" value="VDD_5V_SYS" style="text;html=1;align=center;verticalAlign=middle;resizable=0;points=[];autosize=1;" vertex="1" parent="1">
          <mxGeometry x="340.9" y="70" width="90" height="20" as="geometry" />
        </mxCell>
        <mxCell id="eYxJqQjuEskyyYBBLdMw-10" value="&lt;span style=&quot;text-align: left&quot;&gt;BUCK_5V_PG&lt;/span&gt;" style="text;html=1;align=center;verticalAlign=middle;resizable=0;points=[];autosize=1;" vertex="1" parent="1">
          <mxGeometry x="340.9" y="100" width="90" height="20" as="geometry" />
        </mxCell>
        <mxCell id="eYxJqQjuEskyyYBBLdMw-11" value="" style="edgeStyle=orthogonalEdgeStyle;rounded=0;orthogonalLoop=1;jettySize=auto;html=1;entryX=0;entryY=0.5;entryDx=0;entryDy=0;" edge="1" parent="1" target="eYxJqQjuEskyyYBBLdMw-12">
          <mxGeometry relative="1" as="geometry">
            <mxPoint x="320.9" y="120.00999999999999" as="sourcePoint" />
            <mxPoint x="420.9" y="170" as="targetPoint" />
            <Array as="points">
              <mxPoint x="420.9" y="120" />
              <mxPoint x="420.9" y="170" />
            </Array>
          </mxGeometry>
        </mxCell>
        <mxCell id="eYxJqQjuEskyyYBBLdMw-12" value="GS7116S5-ADJ-R" style="whiteSpace=wrap;html=1;" vertex="1" parent="1">
          <mxGeometry x="460.9" y="140" width="80" height="60" as="geometry" />
        </mxCell>
        <mxCell id="eYxJqQjuEskyyYBBLdMw-14" value="" style="edgeStyle=orthogonalEdgeStyle;rounded=0;orthogonalLoop=1;jettySize=auto;html=1;" edge="1" parent="1">
          <mxGeometry relative="1" as="geometry">
            <mxPoint x="540.9" y="169.71000000000004" as="sourcePoint" />
            <mxPoint x="660.9" y="170" as="targetPoint" />
            <Array as="points">
              <mxPoint x="600.9" y="170" />
              <mxPoint x="660.9" y="170" />
            </Array>
          </mxGeometry>
        </mxCell>
        <mxCell id="eYxJqQjuEskyyYBBLdMw-15" value="3V3_AO" style="text;html=1;align=center;verticalAlign=middle;resizable=0;points=[];autosize=1;" vertex="1" parent="1">
          <mxGeometry x="575.9" y="150" width="60" height="20" as="geometry" />
        </mxCell>
        <mxCell id="eYxJqQjuEskyyYBBLdMw-16" value="MCU" style="rounded=0;whiteSpace=wrap;html=1;" vertex="1" parent="1">
          <mxGeometry x="660.9" y="100" width="120" height="320" as="geometry" />
        </mxCell>
        <mxCell id="eYxJqQjuEskyyYBBLdMw-20" value="" style="edgeStyle=orthogonalEdgeStyle;rounded=0;orthogonalLoop=1;jettySize=auto;html=1;entryX=0;entryY=0.792;entryDx=0;entryDy=0;entryPerimeter=0;" edge="1" parent="1" source="eYxJqQjuEskyyYBBLdMw-18">
          <mxGeometry relative="1" as="geometry">
            <mxPoint x="660.9" y="260.08000000000004" as="targetPoint" />
          </mxGeometry>
        </mxCell>
        <mxCell id="eYxJqQjuEskyyYBBLdMw-18" value="74LVC1G07" style="triangle;whiteSpace=wrap;html=1;" vertex="1" parent="1">
          <mxGeometry x="460.9" y="220" width="80" height="80" as="geometry" />
        </mxCell>
        <mxCell id="eYxJqQjuEskyyYBBLdMw-21" value="BMCU_ACOK" style="text;html=1;align=center;verticalAlign=middle;resizable=0;points=[];autosize=1;" vertex="1" parent="1">
          <mxGeometry x="560.9" y="240" width="90" height="20" as="geometry" />
        </mxCell>
        <mxCell id="eYxJqQjuEskyyYBBLdMw-22" value="" style="edgeStyle=orthogonalEdgeStyle;rounded=0;orthogonalLoop=1;jettySize=auto;html=1;" edge="1" parent="1">
          <mxGeometry relative="1" as="geometry">
            <mxPoint x="420.9" y="259" as="sourcePoint" />
            <mxPoint x="460.9" y="259.31" as="targetPoint" />
            <Array as="points">
              <mxPoint x="460.9" y="259" />
            </Array>
          </mxGeometry>
        </mxCell>
        <mxCell id="eYxJqQjuEskyyYBBLdMw-23" value="" style="endArrow=none;html=1;" edge="1" parent="1">
          <mxGeometry width="50" height="50" relative="1" as="geometry">
            <mxPoint x="420.9" y="260" as="sourcePoint" />
            <mxPoint x="420.9" y="170" as="targetPoint" />
          </mxGeometry>
        </mxCell>
        <mxCell id="eYxJqQjuEskyyYBBLdMw-25" value="" style="edgeStyle=orthogonalEdgeStyle;rounded=0;orthogonalLoop=1;jettySize=auto;html=1;entryX=1.021;entryY=0.843;entryDx=0;entryDy=0;entryPerimeter=0;exitX=1.021;exitY=0.843;exitDx=0;exitDy=0;exitPerimeter=0;" edge="1" parent="1" source="eYxJqQjuEskyyYBBLdMw-16">
          <mxGeometry relative="1" as="geometry">
            <mxPoint x="790.9" y="369.71000000000004" as="sourcePoint" />
            <mxPoint x="910.9" y="370" as="targetPoint" />
            <Array as="points" />
          </mxGeometry>
        </mxCell>
        <mxCell id="eYxJqQjuEskyyYBBLdMw-26" value="&lt;span style=&quot;text-align: left&quot;&gt;BMCU_POWER_EN&lt;/span&gt;" style="text;html=1;align=center;verticalAlign=middle;resizable=0;points=[];autosize=1;direction=west;" vertex="1" parent="1">
          <mxGeometry x="780.9" y="340" width="130" height="20" as="geometry" />
        </mxCell>
        <mxCell id="eYxJqQjuEskyyYBBLdMw-27" value="SN74LV1T125" style="triangle;whiteSpace=wrap;html=1;direction=east;align=left;" vertex="1" parent="1">
          <mxGeometry x="910.9" y="320" width="100" height="100" as="geometry" />
        </mxCell>
        <mxCell id="eYxJqQjuEskyyYBBLdMw-28" value="JETSON&lt;br&gt;NX" style="rounded=0;whiteSpace=wrap;html=1;" vertex="1" parent="1">
          <mxGeometry x="1130.9" y="20" width="120" height="520" as="geometry" />
        </mxCell>
        <mxCell id="eYxJqQjuEskyyYBBLdMw-32" value="" style="endArrow=classic;html=1;entryX=0;entryY=0.673;entryDx=0;entryDy=0;entryPerimeter=0;" edge="1" parent="1" target="eYxJqQjuEskyyYBBLdMw-28">
          <mxGeometry width="50" height="50" relative="1" as="geometry">
            <mxPoint x="1010.9" y="370" as="sourcePoint" />
            <mxPoint x="1060.9" y="320" as="targetPoint" />
          </mxGeometry>
        </mxCell>
        <mxCell id="eYxJqQjuEskyyYBBLdMw-33" value="&lt;span style=&quot;text-align: left&quot;&gt;POWER_EN&lt;/span&gt;" style="text;html=1;align=center;verticalAlign=middle;resizable=0;points=[];autosize=1;direction=west;" vertex="1" parent="1">
          <mxGeometry x="1020.9" y="350" width="80" height="20" as="geometry" />
        </mxCell>
        <mxCell id="eYxJqQjuEskyyYBBLdMw-34" value="SN74LV1T125" style="triangle;whiteSpace=wrap;html=1;direction=west;align=right;" vertex="1" parent="1">
          <mxGeometry x="910.9" y="460" width="100" height="100" as="geometry" />
        </mxCell>
        <mxCell id="eYxJqQjuEskyyYBBLdMw-35" value="" style="endArrow=classic;html=1;entryX=0;entryY=0.673;entryDx=0;entryDy=0;entryPerimeter=0;" edge="1" parent="1">
          <mxGeometry width="50" height="50" relative="1" as="geometry">
            <mxPoint x="1130.9" y="509.96000000000004" as="sourcePoint" />
            <mxPoint x="1010.9" y="510" as="targetPoint" />
          </mxGeometry>
        </mxCell>
        <mxCell id="eYxJqQjuEskyyYBBLdMw-36" value="&lt;div style=&quot;text-align: left&quot;&gt;&lt;span&gt;SYS_RST*&lt;/span&gt;&lt;/div&gt;" style="text;html=1;align=center;verticalAlign=middle;resizable=0;points=[];autosize=1;direction=west;" vertex="1" parent="1">
          <mxGeometry x="1025.9" y="490" width="70" height="20" as="geometry" />
        </mxCell>
        <mxCell id="eYxJqQjuEskyyYBBLdMw-37" value="&lt;div style=&quot;text-align: left&quot;&gt;&lt;span&gt;RESET_N*&lt;/span&gt;&lt;/div&gt;" style="text;html=1;align=center;verticalAlign=middle;resizable=0;points=[];autosize=1;direction=west;" vertex="1" parent="1">
          <mxGeometry x="800.9" y="490" width="80" height="20" as="geometry" />
        </mxCell>
        <mxCell id="eYxJqQjuEskyyYBBLdMw-38" value="" style="endArrow=classic;html=1;" edge="1" parent="1">
          <mxGeometry width="50" height="50" relative="1" as="geometry">
            <mxPoint x="760.9" y="510" as="sourcePoint" />
            <mxPoint x="760.9" y="420" as="targetPoint" />
          </mxGeometry>
        </mxCell>
        <mxCell id="eYxJqQjuEskyyYBBLdMw-39" value="" style="endArrow=none;html=1;entryX=1;entryY=0.5;entryDx=0;entryDy=0;" edge="1" parent="1" target="eYxJqQjuEskyyYBBLdMw-34">
          <mxGeometry width="50" height="50" relative="1" as="geometry">
            <mxPoint x="760.9" y="510" as="sourcePoint" />
            <mxPoint x="810.9" y="460" as="targetPoint" />
          </mxGeometry>
        </mxCell>
        <mxCell id="eYxJqQjuEskyyYBBLdMw-44" value="TPS53015" style="whiteSpace=wrap;html=1;" vertex="1" parent="1">
          <mxGeometry x="240.9" y="380" width="80" height="60" as="geometry" />
        </mxCell>
        <mxCell id="eYxJqQjuEskyyYBBLdMw-45" value="" style="edgeStyle=orthogonalEdgeStyle;rounded=0;orthogonalLoop=1;jettySize=auto;html=1;" edge="1" parent="1">
          <mxGeometry relative="1" as="geometry">
            <mxPoint x="320.9" y="399.71000000000004" as="sourcePoint" />
            <mxPoint x="440.9" y="400" as="targetPoint" />
            <Array as="points">
              <mxPoint x="380.9" y="400" />
              <mxPoint x="440.9" y="400" />
            </Array>
          </mxGeometry>
        </mxCell>
        <mxCell id="eYxJqQjuEskyyYBBLdMw-46" value="VDD_3V3_SYS" style="text;html=1;align=center;verticalAlign=middle;resizable=0;points=[];autosize=1;" vertex="1" parent="1">
          <mxGeometry x="335.9" y="380" width="100" height="20" as="geometry" />
        </mxCell>
        <mxCell id="eYxJqQjuEskyyYBBLdMw-47" value="&lt;div style=&quot;text-align: left&quot;&gt;&lt;span&gt;BUCK_3V3_PG&lt;/span&gt;&lt;/div&gt;" style="text;html=1;align=center;verticalAlign=middle;resizable=0;points=[];autosize=1;" vertex="1" parent="1">
          <mxGeometry x="335.9" y="410" width="100" height="20" as="geometry" />
        </mxCell>
        <mxCell id="eYxJqQjuEskyyYBBLdMw-48" value="" style="endArrow=none;html=1;" edge="1" parent="1">
          <mxGeometry width="50" height="50" relative="1" as="geometry">
            <mxPoint x="190.9" y="510" as="sourcePoint" />
            <mxPoint x="760.9" y="510" as="targetPoint" />
          </mxGeometry>
        </mxCell>
        <mxCell id="eYxJqQjuEskyyYBBLdMw-49" value="" style="endArrow=none;html=1;" edge="1" parent="1">
          <mxGeometry width="50" height="50" relative="1" as="geometry">
            <mxPoint x="190.9" y="510" as="sourcePoint" />
            <mxPoint x="190.9" y="430" as="targetPoint" />
          </mxGeometry>
        </mxCell>
        <mxCell id="eYxJqQjuEskyyYBBLdMw-50" value="" style="endArrow=classic;html=1;" edge="1" parent="1">
          <mxGeometry width="50" height="50" relative="1" as="geometry">
            <mxPoint x="190.9" y="430" as="sourcePoint" />
            <mxPoint x="240.9" y="430" as="targetPoint" />
          </mxGeometry>
        </mxCell>
        <mxCell id="eYxJqQjuEskyyYBBLdMw-51" value="BUCK_3V3_EN" style="text;html=1;align=center;verticalAlign=middle;resizable=0;points=[];autosize=1;" vertex="1" parent="1">
          <mxGeometry x="140.9" y="410" width="100" height="20" as="geometry" />
        </mxCell>
        <mxCell id="eYxJqQjuEskyyYBBLdMw-52" value="" style="endArrow=none;html=1;" edge="1" parent="1">
          <mxGeometry width="50" height="50" relative="1" as="geometry">
            <mxPoint x="200.9" y="390" as="sourcePoint" />
            <mxPoint x="200.9" y="100" as="targetPoint" />
          </mxGeometry>
        </mxCell>
        <mxCell id="eYxJqQjuEskyyYBBLdMw-53" value="" style="endArrow=classic;html=1;" edge="1" parent="1">
          <mxGeometry width="50" height="50" relative="1" as="geometry">
            <mxPoint x="200.9" y="390" as="sourcePoint" />
            <mxPoint x="240.9" y="390" as="targetPoint" />
          </mxGeometry>
        </mxCell>
        <mxCell id="eYxJqQjuEskyyYBBLdMw-55" value="TLV70018" style="rounded=0;whiteSpace=wrap;html=1;" vertex="1" parent="1">
          <mxGeometry x="470.9" y="540" width="120" height="60" as="geometry" />
        </mxCell>
        <mxCell id="eYxJqQjuEskyyYBBLdMw-56" value="" style="endArrow=classic;html=1;" edge="1" parent="1">
          <mxGeometry width="50" height="50" relative="1" as="geometry">
            <mxPoint x="590.9" y="570" as="sourcePoint" />
            <mxPoint x="710.9" y="570" as="targetPoint" />
          </mxGeometry>
        </mxCell>
        <mxCell id="eYxJqQjuEskyyYBBLdMw-57" value="VDD_1V8" style="text;html=1;align=center;verticalAlign=middle;resizable=0;points=[];autosize=1;" vertex="1" parent="1">
          <mxGeometry x="620.9" y="550" width="70" height="20" as="geometry" />
        </mxCell>
        <mxCell id="eYxJqQjuEskyyYBBLdMw-58" value="" style="endArrow=none;html=1;" edge="1" parent="1">
          <mxGeometry width="50" height="50" relative="1" as="geometry">
            <mxPoint x="410.9" y="560" as="sourcePoint" />
            <mxPoint x="410.9" y="430" as="targetPoint" />
          </mxGeometry>
        </mxCell>
        <mxCell id="eYxJqQjuEskyyYBBLdMw-60" value="" style="endArrow=classic;html=1;" edge="1" parent="1">
          <mxGeometry width="50" height="50" relative="1" as="geometry">
            <mxPoint x="410.9" y="560" as="sourcePoint" />
            <mxPoint x="470.9" y="560" as="targetPoint" />
          </mxGeometry>
        </mxCell>
        <mxCell id="eYxJqQjuEskyyYBBLdMw-61" value="EN" style="text;html=1;align=center;verticalAlign=middle;resizable=0;points=[];autosize=1;" vertex="1" parent="1">
          <mxGeometry x="470.9" y="540" width="30" height="20" as="geometry" />
        </mxCell>
        <mxCell id="eYxJqQjuEskyyYBBLdMw-62" value="" style="endArrow=none;html=1;" edge="1" parent="1">
          <mxGeometry width="50" height="50" relative="1" as="geometry">
            <mxPoint x="340.9" y="580" as="sourcePoint" />
            <mxPoint x="340.9" y="400" as="targetPoint" />
          </mxGeometry>
        </mxCell>
        <mxCell id="eYxJqQjuEskyyYBBLdMw-63" value="" style="endArrow=classic;html=1;" edge="1" parent="1">
          <mxGeometry width="50" height="50" relative="1" as="geometry">
            <mxPoint x="340.9" y="580" as="sourcePoint" />
            <mxPoint x="470.9" y="580" as="targetPoint" />
          </mxGeometry>
        </mxCell>
        <mxCell id="eYxJqQjuEskyyYBBLdMw-64" value="" style="endArrow=classic;html=1;" edge="1" parent="1">
          <mxGeometry width="50" height="50" relative="1" as="geometry">
            <mxPoint x="320.9" y="430" as="sourcePoint" />
            <mxPoint x="520" y="430" as="targetPoint" />
          </mxGeometry>
        </mxCell>
        <mxCell id="eYxJqQjuEskyyYBBLdMw-65" value="" style="endArrow=none;html=1;" edge="1" parent="1">
          <mxGeometry width="50" height="50" relative="1" as="geometry">
            <mxPoint x="480" y="430" as="sourcePoint" />
            <mxPoint x="480.1" y="360" as="targetPoint" />
          </mxGeometry>
        </mxCell>
        <mxCell id="eYxJqQjuEskyyYBBLdMw-66" value="" style="endArrow=classic;html=1;" edge="1" parent="1">
          <mxGeometry width="50" height="50" relative="1" as="geometry">
            <mxPoint x="480" y="360" as="sourcePoint" />
            <mxPoint x="660.9" y="360" as="targetPoint" />
          </mxGeometry>
        </mxCell>
        <mxCell id="eYxJqQjuEskyyYBBLdMw-67" value="BMCU_PGOOD" style="text;html=1;align=center;verticalAlign=middle;resizable=0;points=[];autosize=1;" vertex="1" parent="1">
          <mxGeometry x="540.9" y="340" width="100" height="20" as="geometry" />
        </mxCell>
        <mxCell id="eYxJqQjuEskyyYBBLdMw-68" value="" style="endArrow=classic;html=1;" edge="1" parent="1">
          <mxGeometry width="50" height="50" relative="1" as="geometry">
            <mxPoint x="780.9" y="200" as="sourcePoint" />
            <mxPoint x="860" y="200" as="targetPoint" />
          </mxGeometry>
        </mxCell>
        <mxCell id="eYxJqQjuEskyyYBBLdMw-72" value="" style="pointerEvents=1;fillColor=strokeColor;verticalLabelPosition=bottom;shadow=0;dashed=0;align=center;html=1;verticalAlign=top;shape=mxgraph.electrical.diodes.diode;" vertex="1" parent="1">
          <mxGeometry x="851.8" y="180" width="59.1" height="40" as="geometry" />
        </mxCell>
        <mxCell id="eYxJqQjuEskyyYBBLdMw-73" value="SHUTDOWN_REQ*" style="text;html=1;align=center;verticalAlign=middle;resizable=0;points=[];autosize=1;" vertex="1" parent="1">
          <mxGeometry x="1000.9" y="180" width="120" height="20" as="geometry" />
        </mxCell>
        <mxCell id="eYxJqQjuEskyyYBBLdMw-74" value="" style="endArrow=classic;html=1;entryX=1;entryY=0.5;entryDx=0;entryDy=0;entryPerimeter=0;" edge="1" parent="1" target="eYxJqQjuEskyyYBBLdMw-72">
          <mxGeometry width="50" height="50" relative="1" as="geometry">
            <mxPoint x="1130.9" y="199.43000000000006" as="sourcePoint" />
            <mxPoint x="1010.9000000000001" y="199.47000000000003" as="targetPoint" />
          </mxGeometry>
        </mxCell>
      </root>
    </mxGraphModel>
  </diagram>
</mxfile>
